<svg width="28" height="32" viewBox="0 0 28 32" fill="none" xmlns="http://www.w3.org/2000/svg">
<path fill-rule="evenodd" clip-rule="evenodd" d="M23.2832 4.04083H27.5591V3.50635H23.2832V4.04083Z" fill="#202020"/>
<path fill-rule="evenodd" clip-rule="evenodd" d="M8.85205 8.31656V0.299316H11.5245V1.45513H10.1266V3.64656H11.0549V4.74142H10.1266V7.12463H11.5245V8.31656H8.85205Z" fill="#202020"/>
<path fill-rule="evenodd" clip-rule="evenodd" d="M18.9024 8.31656L17.5398 4.26015L17.1552 2.97138V8.31656H16.335V0.299316H17.1182L18.3609 4.41562L18.7218 5.71692V0.299316H19.5419V8.31656H18.9024Z" fill="#202020"/>
<path fill-rule="evenodd" clip-rule="evenodd" d="M9.38672 20.0753H10.4557V12.0581H9.38672V20.0753Z" fill="#202020"/>
<path fill-rule="evenodd" clip-rule="evenodd" d="M3.29769 31.1826L3.16205 30.7733C2.9884 31.1236 2.62931 31.2995 2.25821 31.2995C1.39129 31.2995 0.834961 30.7024 0.834961 29.768V24.8131C0.834961 23.9721 1.51579 23.2822 2.43207 23.2822C3.34858 23.2822 3.97873 23.9721 3.97873 24.8131V26.2516H2.79182V24.7669C2.79182 24.5805 2.67911 24.4513 2.45741 24.4513C2.24576 24.4513 2.1099 24.5805 2.1099 24.7669V29.8735C2.1099 30.0721 2.24576 30.2129 2.45741 30.2129C2.67911 30.2129 2.80383 30.0721 2.80383 29.8742V28.2851H2.48144V27.3493H4.04186V31.1826H3.29769Z" fill="#202020"/>
<path fill-rule="evenodd" clip-rule="evenodd" d="M10.5182 31.2995L9.63219 27.6765L9.35935 26.5808V31.2995H8.31787V23.2822H9.4773L10.2589 26.8805L10.4946 28.0011V23.2822H11.5248V31.2995H10.5182Z" fill="#202020"/>
<path fill-rule="evenodd" clip-rule="evenodd" d="M18.0729 12.8768V20.0753H17.302V12.8768H16.335V12.0581H19.0074V12.8768H18.0729Z" fill="#202020"/>
<path fill-rule="evenodd" clip-rule="evenodd" d="M25.8016 16.9097V20.0753H24.985V16.9097L23.8179 12.0581H24.6346L25.4388 15.79L26.2432 12.0581H27.0248L25.8016 16.9097Z" fill="#202020"/>
<path fill-rule="evenodd" clip-rule="evenodd" d="M15.8003 27.5577H20.0762V26.4888H15.8003V27.5577Z" fill="#202020"/>
<path fill-rule="evenodd" clip-rule="evenodd" d="M17.4038 29.1616H18.4728V24.8857H17.4038V29.1616Z" fill="#202020"/>
<mask id="mask0_1120_5476" style="mask-type:alpha" maskUnits="userSpaceOnUse" x="0" y="0" width="5" height="21">
<path d="M0.834961 0.299316H4.04186V20.0752H0.834961V0.299316Z" fill="white"/>
</mask>
<g mask="url(#mask0_1120_5476)">
<path fill-rule="evenodd" clip-rule="evenodd" d="M1.99039 7.13824C2.80266 7.13824 2.85587 6.93142 2.84569 4.30242C2.85587 1.68424 2.80266 1.47679 1.99039 1.47679V7.13824ZM1.7443 8.31656H0.834961V0.299316H1.7443C3.88181 0.309498 4.04186 1.17176 4.04186 4.31282C4.04186 7.44369 3.88181 8.30553 1.7443 8.31656Z" fill="#202020"/>
<path fill-rule="evenodd" clip-rule="evenodd" d="M2.94383 15.6463C2.4198 14.7812 2.13335 14.4653 2.13335 13.5659C2.13335 13.2971 2.30663 13.1686 2.51954 13.1686C2.71859 13.1686 2.86919 13.3088 2.86919 13.5659V14.1571L3.97955 14.0591V13.6826C3.97955 12.6548 3.39365 12.0581 2.51954 12.0581C1.3962 12.0581 0.860502 12.842 0.860502 13.8113C0.860502 14.7111 1.5217 15.7865 2.00851 16.5111C2.49444 17.2933 2.79389 17.8432 2.79389 18.5442C2.79389 18.8366 2.65672 19.0121 2.38281 19.0121C2.0957 19.0121 1.95831 18.8255 1.95831 18.5442V17.9152L0.834961 18.0141V18.4512C0.834961 19.491 1.44662 20.0753 2.44468 20.0753C3.2556 20.0753 4.04186 19.5729 4.04186 18.3572C4.04186 17.4459 3.49361 16.5226 2.94383 15.6463Z" fill="#202020"/>
</g>
</svg>
